<?xml version="1.0" encoding="UTF-8" standalone="no"?>
<!DOCTYPE svg PUBLIC "-//W3C//DTD SVG 1.1//EN" "http://www.w3.org/Graphics/SVG/1.1/DTD/svg11.dtd">
<!-- Created with Vectornator (http://vectornator.io/) -->
<svg height="100%" stroke-miterlimit="10" style="fill-rule:nonzero;clip-rule:evenodd;stroke-linecap:round;stroke-linejoin:round;" version="1.1" viewBox="19.302 40.1529 475.913 431.947" width="100%" xml:space="preserve" xmlns="http://www.w3.org/2000/svg" xmlns:xlink="http://www.w3.org/1999/xlink">
<defs/>
<g id="Logo">
<g opacity="1">
<g opacity="1">
<path d="M391.12 75.0474L400.765 75.0474L400.765 87.6915L399.512 85.8821L399.616 78.2787L392.545 78.2543L392.567 87.3257L391.077 85.5145L391.12 75.0474Z" fill="#2791ca" fill-rule="nonzero" opacity="1" stroke="none"/>
<path d="M387.535 87.7039C387.535 86.7986 388.798 85.1081 389.936 85.1081C390.11 85.1081 391.028 85.0384 391.452 85.2415C392.269 85.632 392.613 86.6686 392.613 86.9985C392.613 87.9038 390.734 89.3432 389.596 89.3432C388.458 89.3432 387.535 88.6093 387.535 87.7039Z" fill="#2791ca" fill-rule="nonzero" opacity="1" stroke="none"/>
<path d="M395.687 88.3969C395.687 87.4916 396.949 85.8011 398.087 85.8011C398.261 85.8011 399.087 85.6789 399.512 85.8821C400.328 86.2726 400.765 87.3616 400.765 87.6915C400.765 88.5968 398.885 90.0362 397.747 90.0362C396.609 90.0362 395.687 89.3023 395.687 88.3969Z" fill="#2791ca" fill-rule="nonzero" opacity="1" stroke="none"/>
</g>
<g opacity="1">
<path d="M343.166 134.579L373.218 126.563L373.117 166.978L368.296 160.91L368.09 136.02L348.016 141.388L348.183 172.406L343.127 166.567L343.166 134.579Z" fill="#2397d0" fill-rule="nonzero" opacity="1" stroke="none"/>
<path d="M332.293 174.614C332.293 171.781 336.244 166.49 339.805 166.49C340.349 166.49 343.222 166.272 344.551 166.908C347.105 168.13 348.183 171.374 348.183 172.406C348.183 175.24 342.302 179.744 338.741 179.744C335.179 179.744 332.293 177.448 332.293 174.614Z" fill="#2397d0" fill-rule="nonzero" opacity="1" stroke="none"/>
<path d="M357.327 168.462C357.327 165.628 361.279 160.338 364.84 160.338C365.383 160.338 367.969 159.956 369.298 160.591C371.853 161.813 373.218 165.222 373.218 166.254C373.218 169.087 367.337 173.592 363.776 173.592C360.214 173.592 357.327 171.295 357.327 168.462Z" fill="#2397d0" fill-rule="nonzero" opacity="1" stroke="none"/>
</g>
<g opacity="1">
<path d="M305.972 176.085L309.488 174.314L321.719 198.029L316.397 196.203L305.972 176.085Z" fill="#117db7" fill-rule="nonzero" opacity="1" stroke="none"/>
<path d="M311.686 205.105C310.692 203.178 311.523 198.193 313.945 196.944C314.315 196.753 316.193 195.597 317.32 195.563C319.486 195.498 321.357 197.327 321.719 198.029C322.713 199.956 320.293 205.083 317.871 206.332C315.449 207.581 312.68 207.032 311.686 205.105Z" fill="#117db7" fill-rule="nonzero" opacity="1" stroke="none"/>
</g>
<g opacity="1">
<path d="M395.283 116.468L399.219 116.505L399.219 143.189L395.326 139.126L395.283 116.468Z" fill="#229ed5" fill-rule="nonzero" opacity="1" stroke="none"/>
<path d="M387.059 144.878C387.059 142.71 390.083 138.661 392.808 138.661C393.224 138.661 395.422 138.494 396.44 138.981C398.394 139.916 399.219 142.399 399.219 143.189C399.219 145.357 394.719 148.804 391.993 148.804C389.268 148.804 387.059 147.046 387.059 144.878Z" fill="#229ed5" fill-rule="nonzero" opacity="1" stroke="none"/>
</g>
</g>
<g opacity="1">
<g opacity="1">
<path d="M255.733 236.493L269.748 232.079L275.733 230.521L275.717 233.381L256.359 245.283L256.523 242.558L256.393 238.729L255.733 236.493Z" fill="#19a3d2" fill-rule="nonzero" opacity="1" stroke="none"/>
<path d="M256.359 245.283L275.717 233.381L275.627 248.966L256.359 245.283Z" fill="#178ebf" fill-rule="nonzero" opacity="1" stroke="none"/>
<path d="M256.359 245.283L275.627 248.966L275.587 255.927L273.814 255.364L255.786 246.659L256.359 245.283Z" fill="#056694" fill-rule="nonzero" opacity="1" stroke="none"/>
<path d="M255.786 246.659L256.359 245.283L256.523 242.558L256.393 238.729L254.575 241.214L252.251 243.846L249.554 246.633L247.144 248.284L249.994 248.838L252.992 248.322L255.786 246.659Z" fill="#046090" fill-rule="nonzero" opacity="1" stroke="none"/>
<path d="M256.393 238.729L255.733 236.493L253.41 235.537L251.033 235.277L248.181 235.537L246.684 235.971L245.334 236.843L243.839 239.081L243.074 241.214L243.459 244.416L244.557 247.17L246.945 248.246L247.144 248.284L249.554 246.633L252.425 243.648L254.575 241.214L256.393 238.729Z" fill="#158ebc" fill-rule="nonzero" opacity="1" stroke="none"/>
<path d="M245.334 236.843L225.248 230.408L225.284 250.239L243.074 241.214L243.839 239.081L245.334 236.843Z" fill="#1c9bce" fill-rule="nonzero" opacity="1" stroke="none"/>
<path d="M225.284 250.239L225.674 256.455L226.333 256.179L244.557 247.17L243.459 244.416L243.074 241.214L225.284 250.239Z" fill="#076d9c" fill-rule="nonzero" opacity="1" stroke="none"/>
</g>
<g opacity="1">
<path d="M38.7887 208.142L35.8511 208.139L33.4436 210.861L31.6197 226.144L36.1063 232.467L37.1308 221.103L38.7887 208.142Z" fill="#252829" fill-rule="nonzero" opacity="1" stroke="none"/>
<path d="M33.4436 210.861L25.4519 218.564L31.6197 226.144L33.4436 210.861Z" fill="#2e3130" fill-rule="nonzero" opacity="1" stroke="none"/>
<path d="M25.4519 218.564L31.6197 226.144L36.1063 232.467L37.7111 234.041L76.5668 271.891L19.302 304.124L25.4519 218.564Z" fill="#232323" fill-rule="nonzero" opacity="1" stroke="none"/>
<path d="M19.302 304.124L76.5668 271.891L30.7534 322.715L19.302 304.124Z" fill="#202022" fill-rule="nonzero" opacity="1" stroke="none"/>
<path d="M30.7534 322.715L76.5668 271.891L69.7766 335.421L30.7534 322.715Z" fill="#202324" fill-rule="nonzero" opacity="1" stroke="none"/>
<path d="M76.5668 271.891L69.7766 335.421L144.303 331.337L76.5668 271.891Z" fill="#1f1f21" fill-rule="nonzero" opacity="1" stroke="none"/>
<path d="M76.5668 271.891L127.734 316.796L124.944 301.863L110.344 280.148L76.5668 271.891Z" fill="#2c2f30" fill-rule="nonzero" opacity="1" stroke="none"/>
<path d="M127.734 316.796L144.303 331.337L142.745 291.624L136.655 287L110.344 280.148L124.944 301.863L127.734 316.796Z" fill="#292929" fill-rule="nonzero" opacity="1" stroke="none"/>
<path d="M136.655 287L142.745 291.624L142.745 287L136.655 287Z" fill="#3a3a3a" fill-rule="nonzero" opacity="1" stroke="none"/>
<path d="M136.655 287L108.8 257.344L114.94 252.414L123.23 252.367L135.159 240.733L140.048 233.559L161.111 265.653L142.745 287L136.655 287Z" fill="#414141" fill-rule="nonzero" opacity="1" stroke="none"/>
<path d="M142.745 287L161.111 265.653L203.845 330.179L209.792 345.314L144.303 331.337L142.745 291.624L142.745 287Z" fill="#3e3e3e" fill-rule="nonzero" opacity="1" stroke="none"/>
<path d="M144.303 331.337L209.792 345.314L232.178 400.786L230.631 370.261L226.657 324.904L251.293 364.207L248.152 366.705L250.49 368.975L251.775 429.624L234.927 411.627L144.303 331.337Z" fill="#2c2f30" fill-rule="nonzero" opacity="1" stroke="none"/>
<path d="M250.49 368.975L251.775 429.624L304.77 411.861L279.811 392.215L277.967 394.752L275.351 391.195L273.031 395.965L273.004 389.002L250.49 368.975Z" fill="#2a2d2e" fill-rule="nonzero" opacity="1" stroke="none"/>
<path d="M251.775 429.624L304.77 411.861L342.288 399.3L353.173 467.781L251.775 429.624Z" fill="#1e1e20" fill-rule="nonzero" opacity="1" stroke="none"/>
<path d="M304.77 411.861L279.811 392.215L350.91 318.61L351.192 322.715L342.288 399.3L304.77 411.861Z" fill="#28272b" fill-rule="nonzero" opacity="1" stroke="none"/>
<path d="M279.811 392.215L350.91 318.61L350.97 316.796L340.009 309.101L339.666 314.753L338.549 314.741L338.536 323.187L299.18 323.369L275.351 391.195L277.967 394.752L279.811 392.215Z" fill="#363636" fill-rule="nonzero" opacity="1" stroke="none"/>
<path d="M338.536 323.187L338.549 314.741L307.155 314.596L300.044 323.365L338.536 323.187Z" fill="#1e2120" fill-rule="nonzero" opacity="1" stroke="none"/>
<path d="M300.044 323.365L307.155 314.596L302.499 314.594L300.271 320.99L299.18 323.369L300.044 323.365Z" fill="#404241" fill-rule="nonzero" opacity="1" stroke="none"/>
<path d="M299.18 323.369L275.351 391.195L273.031 395.965L273.004 389.002L274.23 353.291L276.358 329.684L275.351 369.79L289.992 331.337L300.271 320.99L299.18 323.369Z" fill="#242120" fill-rule="nonzero" opacity="1" stroke="none"/>
<path d="M289.992 331.337L300.271 320.99L321.048 261.344L315.03 262.288L289.992 331.337Z" fill="#303231" fill-rule="nonzero" opacity="1" stroke="none"/>
<path d="M321.048 261.344L315.03 262.288L318.251 254.849L306.657 258.023L301.298 251.682L305.52 246.48L286.638 221.511L296.485 229.592L336.265 267.502L319.991 300.649L317.243 296.811L302.987 313.194L321.048 261.344Z" fill="#4b4b4b" fill-rule="nonzero" opacity="1" stroke="none"/>
<path d="M301.298 251.682L305.52 246.48L286.638 221.511L282.815 216.953L281.652 238.19L279.931 270.347L276.896 320.747L318.251 254.849L306.657 258.023L293.7 261.823L301.298 251.682Z" fill="#1a90c1" fill-rule="nonzero" opacity="1" stroke="none"/>
<path d="M276.901 320.652L318.251 254.849L315.03 262.288L289.992 331.337L275.351 369.79L276.358 329.684L276.901 320.652Z" fill="#0e6e9d" fill-rule="nonzero" opacity="1" stroke="none"/>
<path d="M319.991 300.649L336.265 267.502L350.97 280.762L350.97 316.796L340.009 309.101L340.222 300.573L327.034 307.645L328.174 296.969L319.991 300.649Z" fill="#3b3b3b" fill-rule="nonzero" opacity="1" stroke="none"/>
<path d="M327.034 307.645L340.222 300.573L340.009 309.101L339.666 314.753L338.549 314.741L330.114 314.702L325.703 308.774L327.034 307.645Z" fill="#096ea3" fill-rule="nonzero" opacity="1" stroke="none"/>
<path d="M327.034 307.645L328.174 296.969L319.991 300.649L325.703 308.774L327.034 307.645Z" fill="#01456a" fill-rule="nonzero" opacity="1" stroke="none"/>
<path d="M319.991 300.649L325.703 308.774L326.354 309.649L304.178 314.595L302.52 314.534L302.987 313.194L317.243 296.811L319.991 300.649Z" fill="#a5b6c6" fill-rule="nonzero" opacity="1" stroke="none"/>
<path d="M304.178 314.595L326.354 309.649L330.114 314.702L307.155 314.596L304.178 314.595Z" fill="#7f9ebb" fill-rule="nonzero" opacity="1" stroke="none"/>
<path d="M350.97 280.762L356.763 278.592L424.312 257.165L351.192 322.715L350.91 318.61L350.97 316.796L350.97 280.762Z" fill="#333333" fill-rule="nonzero" opacity="1" stroke="none"/>
<path d="M351.192 322.715L424.312 257.165L439.518 319.566L351.192 322.715Z" fill="#202324" fill-rule="nonzero" opacity="1" stroke="none"/>
<path d="M424.312 257.165L439.518 319.566L470.838 295.68L424.312 257.165Z" fill="#202022" fill-rule="nonzero" opacity="1" stroke="none"/>
<path d="M424.312 257.165C424.312 257.165 470.838 295.68 470.838 295.68L449.599 190.268C449.599 190.268 424.312 257.165 424.312 257.165Z" fill="#3d3d3f" fill-rule="nonzero" opacity="1" stroke="none"/>
<path d="M449.599 190.268L470.838 295.68L494.262 222.24L484.642 216.924L466.658 203.211L452.425 192.448L449.599 190.268Z" fill="#2f2e32" fill-rule="nonzero" opacity="1" stroke="none"/>
<path d="M494.262 222.24L495.215 219.864L487.023 200.983L486.56 204.053L492.012 220.997L494.262 222.24Z" fill="#242629" fill-rule="nonzero" opacity="1" stroke="none"/>
<path d="M486.56 204.053L492.012 220.997L484.642 216.924L486.56 204.053Z" fill="#212024" fill-rule="nonzero" opacity="1" stroke="none"/>
<path d="M286.638 221.511L296.485 229.592L336.265 267.502L350.066 241.558L349.879 231.898L312.713 233.233L286.638 221.511Z" fill="#616161" fill-rule="nonzero" opacity="1" stroke="none"/>
<path d="M336.265 267.502L350.066 241.558L350.97 280.762L336.265 267.502Z" fill="#4e5150" fill-rule="nonzero" opacity="1" stroke="none"/>
<path d="M350.97 280.762L350.066 241.558L349.879 231.898L361.171 246.48L350.97 280.762Z" fill="#434345" fill-rule="nonzero" opacity="1" stroke="none"/>
<path d="M350.97 280.762L361.171 246.48L370.164 244.951L350.97 280.762Z" fill="#404042" fill-rule="nonzero" opacity="1" stroke="none"/>
<path d="M350.97 280.762L370.164 244.951L380.194 254.06L356.763 278.592L350.97 280.762Z" fill="#3e4142" fill-rule="nonzero" opacity="1" stroke="none"/>
<path d="M356.763 278.592L380.194 254.06L424.312 257.165L356.763 278.592Z" fill="#505354" fill-rule="nonzero" opacity="1" stroke="none"/>
<path d="M301.298 251.682L306.657 258.023L293.7 261.823L301.298 251.682Z" fill="#373330" fill-rule="nonzero" opacity="1" stroke="none"/>
<path d="M273.004 389.002L250.49 368.975L248.152 366.705L251.293 364.207L274.23 353.291L273.004 389.002Z" fill="#363636" fill-rule="nonzero" opacity="1" stroke="none"/>
<path d="M251.293 364.207L274.23 353.291L276.358 329.684L261.191 348.807L251.293 364.207Z" fill="#29292b" fill-rule="nonzero" opacity="1" stroke="none"/>
<path d="M251.293 364.207L261.191 348.807L276.358 329.684L279.931 270.347L251.293 364.207Z" fill="#343433" fill-rule="nonzero" opacity="1" stroke="none"/>
<path d="M144.303 331.337L234.927 411.627L251.775 429.624L153.34 413.806L144.303 331.337Z" fill="#262529" fill-rule="nonzero" opacity="1" stroke="none"/>
<path d="M153.34 413.806L251.775 429.624L147.137 472.1L153.34 413.806Z" fill="#1f1f21" fill-rule="nonzero" opacity="1" stroke="none"/>
<path d="M226.657 324.904L251.293 364.207L220.275 257.165L226.657 324.904Z" fill="#424546" fill-rule="nonzero" opacity="1" stroke="none"/>
<path d="M209.792 345.314L203.845 330.179L225.248 358.547L230.631 370.261L232.178 400.786L209.792 345.314Z" fill="#1e1e1e" fill-rule="nonzero" opacity="1" stroke="none"/>
<path d="M140.048 233.559L161.111 265.653L197.06 227.306L183.405 232.467L140.048 233.559Z" fill="#636363" fill-rule="nonzero" opacity="1" stroke="none"/>
<path d="M197.06 227.306L212.843 221.511L194.88 246.48L198.593 251.077L193.045 257.746L182.934 254.849L186.595 263.573L177.011 261.686L203.845 330.179L161.111 265.653L197.06 227.306Z" fill="#4e4e4e" fill-rule="nonzero" opacity="1" stroke="none"/>
<path d="M194.88 246.48L212.843 221.511L216.143 216.953L218.673 237.133L219.195 242.989L220.275 257.165L226.064 318.61L182.934 254.849L207.274 261.823L194.88 246.48Z" fill="#1a8cbb" fill-rule="nonzero" opacity="1" stroke="none"/>
<path d="M182.934 254.849L226.064 318.61L230.631 370.261L225.248 358.547L186.595 263.573L182.934 254.849Z" fill="#0b6997" fill-rule="nonzero" opacity="1" stroke="none"/>
<path d="M186.595 263.573L177.011 261.686L203.845 330.179L225.248 358.547L186.595 263.573Z" fill="#2d2d2e" fill-rule="nonzero" opacity="1" stroke="none"/>
<path d="M198.593 251.077L207.274 261.823L193.045 257.746L198.593 251.077Z" fill="#2d2d2c" fill-rule="nonzero" opacity="1" stroke="none"/>
<path d="M136.655 287L108.8 257.344L101.084 264.589L110.344 280.148L136.655 287Z" fill="#323135" fill-rule="nonzero" opacity="1" stroke="none"/>
<path d="M101.084 264.589L76.5668 271.891L110.344 280.148L101.084 264.589Z" fill="#333636" fill-rule="nonzero" opacity="1" stroke="none"/>
<path d="M37.7111 234.041L73.3981 216.597L76.5668 271.891L37.7111 234.041Z" fill="#333335" fill-rule="nonzero" opacity="1" stroke="none"/>
</g>
<g opacity="1">
<path d="M40.4917 200.208L43.0458 201.016L43.8519 202.474L46.6333 205.305L52.8621 218.184L37.1308 221.103L38.6996 208.558L40.4917 200.208Z" fill="#bdc0c1" fill-rule="nonzero" opacity="1" stroke="none"/>
<path d="M37.1308 221.103L36.1063 232.467L37.7111 234.041L69.7645 218.442L71.4419 214.126L52.5039 218.251L37.1308 221.103Z" fill="#a4a6a9" fill-rule="nonzero" opacity="1" stroke="none"/>
<path d="M46.6333 205.305L52.8621 218.184L71.4419 214.126L70.7306 213.54L66.4203 213.003L55.7483 209.391L46.6333 205.305Z" fill="#c6c8cb" fill-rule="nonzero" opacity="1" stroke="none"/>
<path d="M466.658 203.211L484.615 216.953L488.474 191.364L466.658 203.211Z" fill="#acafb0" fill-rule="nonzero" opacity="1" stroke="none"/>
<path d="M488.474 191.364L483.256 189.003L483.256 192.448L455.58 188.409L455.684 187.513L452.805 187.329L452.425 192.448L466.658 203.211L488.474 191.364Z" fill="#cacdce" fill-rule="nonzero" opacity="1" stroke="none"/>
<path d="M217.633 216.119L220.588 214.296L248.181 235.537L246.684 235.971L245.334 236.843L230.124 231.949L217.633 216.119Z" fill="#cdcdcd" fill-rule="nonzero" opacity="1" stroke="none"/>
<path d="M217.633 216.119L216.143 216.953L218.701 237.36L225.286 251.245L225.248 230.408L230.124 231.949L217.633 216.119Z" fill="#e6e6e6" fill-rule="nonzero" opacity="1" stroke="none"/>
<path d="M218.673 237.133L225.286 251.245L225.674 256.455L219.195 242.989L218.673 237.133Z" fill="#aeb1ae" fill-rule="nonzero" opacity="1" stroke="none"/>
<path d="M219.195 242.989L225.674 256.455L226.333 256.179L228.803 263.091L248.421 252.914L248.181 321.65L240.586 326.677L220.275 257.165L219.195 242.989Z" fill="#d1d4d5" fill-rule="nonzero" opacity="1" stroke="none"/>
<path d="M240.586 326.677L249.373 320.865L249.188 356.547L240.586 326.677Z" fill="#bfc2c3" fill-rule="nonzero" opacity="1" stroke="none"/>
<path d="M249.44 320.82L262.277 312.367L250.073 359.646L249.188 356.547L249.44 320.82Z" fill="#c1c4c3" fill-rule="nonzero" opacity="1" stroke="none"/>
<path d="M250.073 359.646L251.293 364.207L279.931 270.347L281.661 238.072L262.277 312.367L250.073 359.646Z" fill="#babdbe" fill-rule="nonzero" opacity="1" stroke="none"/>
<path d="M248.421 252.914L249.941 251.939L274.77 264.483L262.277 312.367L248.181 321.65L248.421 252.914Z" fill="#daddde" fill-rule="nonzero" opacity="1" stroke="none"/>
<path d="M274.77 264.483C274.77 264.483 273.192 263.675 273.192 263.675L273.814 255.364L275.587 255.927L275.733 230.521L269.748 232.079L277.788 215.42L277.788 213.821L282.815 216.953L281.652 238.19C281.652 238.19 274.77 264.483 274.77 264.483Z" fill="#e7eae7" fill-rule="nonzero" opacity="1" stroke="none"/>
<path d="M277.788 213.821L277.788 215.42L269.748 232.079L255.733 236.493L253.41 235.537L251.033 235.277L277.788 213.821Z" fill="#cfcecc" fill-rule="nonzero" opacity="1" stroke="none"/>
<path d="M226.333 256.179L244.557 247.17L246.945 248.246L249.994 248.838L252.992 248.322L255.786 246.659L273.814 255.364L273.192 263.675L249.941 251.939L248.421 252.914L228.803 263.091L226.333 256.179Z" fill="#acacac" fill-rule="nonzero" opacity="1" stroke="none"/>
</g>
</g>
<g opacity="1">
<path d="M91.6374 156.764L96.1898 160.91L192.559 41.923L190.244 40.1529L91.6374 156.764Z" fill="#00669f" fill-rule="nonzero" opacity="1" stroke="none"/>
</g>
<g opacity="1">
<g opacity="1">
<path d="M455.58 188.409L483.256 192.448L466.741 173.308L455.58 188.409Z" fill="#252525" fill-rule="nonzero" opacity="1" stroke="none"/>
<path d="M466.741 173.308L481.554 149.602L485.965 140.137L483.256 167.861L483.256 192.448L466.741 173.308Z" fill="#2d2d2f" fill-rule="nonzero" opacity="1" stroke="none"/>
<path d="M455.58 188.409L466.741 173.308L438.675 162.589L448.814 173.885L456.584 179.786L455.58 188.409Z" fill="#323232" fill-rule="nonzero" opacity="1" stroke="none"/>
<path d="M438.675 162.589L421.376 143.713L435.216 146.691L438.675 162.589Z" fill="#404040" fill-rule="nonzero" opacity="1" stroke="none"/>
<path d="M421.376 143.713L420.003 142.384L423.283 136.918L427.498 138.258L434.835 141.386L436.225 142.594L435.216 146.691L421.376 143.713Z" fill="#696969" fill-rule="nonzero" opacity="1" stroke="none"/>
<path d="M438.675 162.589L435.216 146.691L436.225 142.594L443.23 149.615L443.076 151.768L438.675 162.589Z" fill="#555555" fill-rule="nonzero" opacity="1" stroke="none"/>
<path d="M438.675 162.589L443.076 151.768L443.23 149.615L466.741 173.308L438.675 162.589Z" fill="#444444" fill-rule="nonzero" opacity="1" stroke="none"/>
<path d="M443.962 150.349L466.741 173.308L456.726 143.713L454.061 129.794L453.16 129.812L451.224 143.335L443.23 149.615L443.962 150.349Z" fill="#4b4b4b" fill-rule="nonzero" opacity="1" stroke="none"/>
<path d="M466.741 173.308L481.554 149.602L485.965 140.137L471.965 133.748L456.726 143.713L466.741 173.308Z" fill="#3f3f3f" fill-rule="nonzero" opacity="1" stroke="none"/>
<path d="M456.726 143.713L471.965 133.748L457.384 127.996L454.061 129.794L456.726 143.713Z" fill="#282828" fill-rule="nonzero" opacity="1" stroke="none"/>
<path d="M457.384 127.996L467.679 125.675L471.965 133.748L457.384 127.996Z" fill="#444444" fill-rule="nonzero" opacity="1" stroke="none"/>
<path d="M457.384 127.996L454.061 129.794L453.16 129.812L447.969 130.202L443.23 126.889L442.921 126.136L450.212 127.54L457.384 127.996Z" fill="#343434" fill-rule="nonzero" opacity="1" stroke="none"/>
<path d="M442.921 126.136L441.121 122.586L452.261 120.693L466.083 119.216L467.679 125.675L457.384 127.996L450.212 127.54L442.921 126.136Z" fill="#5f5f61" fill-rule="nonzero" opacity="1" stroke="none"/>
<path d="M471.965 133.748L485.965 140.137L485.697 138.087L474.722 125.882L466.083 119.216L467.679 125.675L471.965 133.748Z" fill="#5e5e5e" fill-rule="nonzero" opacity="1" stroke="none"/>
<path d="M466.083 119.216L466.083 116.904L451.767 117.735L452.261 120.693L466.083 119.216Z" fill="#303030" fill-rule="nonzero" opacity="1" stroke="none"/>
<path d="M466.083 119.216L474.722 125.882L474.38 123.99L466.083 116.904L466.083 119.216Z" fill="#373737" fill-rule="nonzero" opacity="1" stroke="none"/>
<path d="M474.38 123.99L466.741 100.032L465.046 99.408L461.096 111.333L461.096 112.291L466.083 116.904L474.38 123.99Z" fill="#575757" fill-rule="nonzero" opacity="1" stroke="none"/>
<path d="M466.741 100.032L461.956 85.1279L459.869 85.11L456.404 91.3223L465.046 99.408L466.741 100.032Z" fill="#6b6b6b" fill-rule="nonzero" opacity="1" stroke="none"/>
<path d="M456.404 91.3223L465.046 99.408L461.096 111.333L459.265 110.217L455.893 92.1832L456.404 91.3223Z" fill="#4d4d4d" fill-rule="nonzero" opacity="1" stroke="none"/>
<path d="M459.265 110.217L436.96 98.6849L436.225 100.715L436.781 106.841L439.589 107.082L461.096 112.291L461.096 111.333L459.265 110.217Z" fill="#707070" fill-rule="nonzero" opacity="1" stroke="none"/>
<path d="M436.781 106.841L439.589 107.082L461.096 112.291L466.083 116.904L451.767 117.735L446.946 114.869L438.996 109.202L437.166 107.628L436.781 106.841Z" fill="#474747" fill-rule="nonzero" opacity="1" stroke="none"/>
<path d="M475.454 124.558L477.091 108.253L483.579 115.329L484.174 126.598L485.697 138.087L474.722 125.882L474.38 123.99L475.454 124.558Z" fill="#4d4d4d" fill-rule="nonzero" opacity="1" stroke="none"/>
<path d="M477.091 108.253L483.579 115.329L483.256 104.169L482.034 104.147L477.091 108.253Z" fill="#6b696a" fill-rule="nonzero" opacity="1" stroke="none"/>
</g>
<g opacity="1">
<path d="M46.6333 205.305L70.0354 198.171L66.4203 213.003L55.7483 209.391L46.6333 205.305Z" fill="#2b2b2d" fill-rule="nonzero" opacity="1" stroke="none"/>
<path d="M46.6333 205.305L43.8519 202.474C43.8519 202.474 46.6999 191.628 49.5184 183.478C52.337 175.328 55.1261 169.875 55.1261 169.875L61.1298 171.642L70.0354 198.171L46.6333 205.305Z" fill="#404040" fill-rule="nonzero" opacity="1" stroke="none"/>
<path d="M61.1298 171.642L70.0354 198.171L73.3955 176.709L61.1298 171.642Z" fill="#313132" fill-rule="nonzero" opacity="1" stroke="none"/>
<path d="M70.0354 198.171L81.2698 192.657L83.934 189.55L85.7032 186.404L79.9204 179.819L73.3955 176.709L70.0354 198.171Z" fill="#202020" fill-rule="nonzero" opacity="1" stroke="none"/>
<path d="M55.1261 169.875L61.1298 171.642L81.0945 173.177L81.902 170.369L59.4077 161.382L55.1261 169.875Z" fill="#767676" fill-rule="nonzero" opacity="1" stroke="none"/>
<path d="M61.1298 171.642L73.3955 176.709L79.9204 179.819L80.9437 179.688L81.0945 173.177L61.1298 171.642Z" fill="#454545" fill-rule="nonzero" opacity="1" stroke="none"/>
<path d="M79.9204 179.819L80.9437 179.688L90.6136 181.669L91.7532 176.304C91.7532 176.304 92.9572 177.01 93.8985 177.458C94.8399 177.907 95.5186 178.098 95.5186 178.098L93.8063 188.4L91.851 190.327L85.7032 186.404L79.9204 179.819Z" fill="#404040" fill-rule="nonzero" opacity="1" stroke="none"/>
<path d="M80.9437 179.688L90.6136 181.669L90.7758 180.963L81.7648 170.846L81.0945 173.177L80.9437 179.688Z" fill="#585858" fill-rule="nonzero" opacity="1" stroke="none"/>
<path d="M81.7648 170.846L90.7758 180.963L91.7532 176.304C91.7532 176.304 89.9513 175.174 87.7195 173.254C85.4877 171.333 82.826 168.622 82.826 168.622L81.902 170.369L81.7648 170.846Z" fill="#2a2a2a" fill-rule="nonzero" opacity="1" stroke="none"/>
<path d="M59.4077 161.382L81.902 170.369L82.826 168.622L83.6084 169.402L85.6356 166.824L59.7014 160.416L59.4077 161.382Z" fill="#363636" fill-rule="nonzero" opacity="1" stroke="none"/>
<path d="M59.7014 160.416L65.5189 161.889L87.7195 162.563L88.3064 161.893L64.2599 155.627L59.7014 160.416Z" fill="#7b7b7b" fill-rule="nonzero" opacity="1" stroke="none"/>
<path d="M65.5189 161.889L85.6356 166.824L87.7195 166.793L87.7195 162.563L65.5189 161.889Z" fill="#5c5c5c" fill-rule="nonzero" opacity="1" stroke="none"/>
<path d="M83.6084 169.402L87.7195 173.254L91.7532 176.304L93.8985 177.458L95.5186 178.098L96.3538 176.709C96.3538 176.709 94.8669 172.957 92.855 169.253C90.8432 165.549 88.3064 161.893 88.3064 161.893L87.7195 162.563L87.7195 166.793L85.6356 166.824L83.6084 169.402Z" fill="#505051" fill-rule="nonzero" opacity="1" stroke="none"/>
<path d="M64.2599 155.627L88.3064 161.893L89.9811 159.74L89.1062 157.686L64.7904 155.113L64.2599 155.627Z" fill="#373a3b" fill-rule="nonzero" opacity="1" stroke="none"/>
<path d="M88.3064 161.893L92.855 169.253L96.3538 176.709L95.5186 178.098L96.3538 177.777L98.9249 175.259L100.487 170.938C100.487 170.938 98.7841 169.623 96.1577 166.824C93.5313 164.024 89.9811 159.74 89.9811 159.74L88.3064 161.893Z" fill="#303030" fill-rule="nonzero" opacity="1" stroke="none"/>
<path d="M89.9811 159.74L96.1577 166.824L100.487 170.938L102.137 166.184L97.7503 157.971L95.5186 155.627L94.8095 153.699L93.1665 153.742L91.1894 157.649L89.1062 157.686L89.9811 159.74Z" fill="#545454" fill-rule="nonzero" opacity="1" stroke="none"/>
<path d="M64.7904 155.113L89.1062 157.686L91.1894 157.649L93.1665 153.742L77.8693 150.349L73.0803 148.927L70.7256 147.863L64.7904 155.113Z" fill="#757577" fill-rule="nonzero" opacity="1" stroke="none"/>
<path d="M70.7256 147.863L91.7532 140.137L104.886 141.41L107.58 142.144L110.014 143.468L114.109 145.616L112.453 149.297L102.569 147.251L93.7756 145.187L92.321 144.279L77.5918 150.267L73.0803 148.927L70.7256 147.863Z" fill="#777777" fill-rule="nonzero" opacity="1" stroke="none"/>
<path d="M77.5918 150.267L92.321 144.279L93.7756 145.187L102.569 147.251L112.453 149.297L111.457 150.267L107.998 151.583L99.4101 150.267L94.3965 150.267L85.3848 152.016L77.5918 150.267Z" fill="#3b3b39" fill-rule="nonzero" opacity="1" stroke="none"/>
<path d="M97.7503 157.971L102.137 166.184L102.78 165.393L99.7654 158.045L99.6152 156.087L97.7503 157.971Z" fill="#272624" fill-rule="nonzero" opacity="1" stroke="none"/>
<path d="M99.6152 156.087L104.345 151.023L107.998 151.583L108.495 151.394L108.822 152.016L102.137 156.74L103.921 163.883L102.78 165.393L99.7654 158.045L99.6152 156.087Z" fill="#343435" fill-rule="nonzero" opacity="1" stroke="none"/>
<path d="M103.921 163.883L102.137 156.74L108.822 152.016L110.396 156.087L103.921 163.883Z" fill="#3b3b3d" fill-rule="nonzero" opacity="1" stroke="none"/>
<path d="M97.0951 150.267L99.4101 150.267L104.345 151.023L101.249 154.338L103.41 151.464L102.643 151.128L99.3412 150.637L96.8118 150.645L97.0951 150.267Z" fill="#043e55" fill-rule="nonzero" opacity="1" stroke="none"/>
</g>
<g opacity="1">
<path d="M221.085 197.657L236.797 213.821L249.985 213.821L263.149 213.589L277.209 198.337L277.272 202.19L264.736 218.829L236.16 219.369L221.092 200.089L221.085 197.657Z" fill="#121212" fill-rule="nonzero" opacity="1" stroke="none"/>
<path d="M221.092 200.089L236.16 219.369L262.577 226.053L251.033 235.277L248.181 235.537L220.588 214.296L221.092 200.089Z" fill="#373737" fill-rule="nonzero" opacity="1" stroke="none"/>
<path d="M236.16 219.369L264.736 218.829L259.365 225.241L236.16 219.369Z" fill="#222222" fill-rule="nonzero" opacity="1" stroke="none"/>
<path d="M264.736 218.829L277.272 202.19L277.788 213.821L262.577 226.053L259.365 225.241L264.736 218.829Z" fill="#242424" fill-rule="nonzero" opacity="1" stroke="none"/>
</g>
<g opacity="1">
<path d="M208.735 117.704L209.29 110.885L226.912 92.0496L274.483 114.379L208.735 117.704Z" fill="#7b7b7d" fill-rule="nonzero" opacity="1" stroke="none"/>
<path d="M226.912 92.0496L250.444 86.8774L274.483 114.381L226.912 92.0496Z" fill="#8a8d8c" fill-rule="nonzero" opacity="1" stroke="none"/>
<path d="M250.444 86.8774L274.483 92.9329L274.483 114.381L250.444 86.8774Z" fill="#949798" fill-rule="nonzero" opacity="1" stroke="none"/>
<path d="M274.483 114.381L274.483 92.9329L290.453 111.02L274.483 114.381Z" fill="#86898a" fill-rule="nonzero" opacity="1" stroke="none"/>
<path d="M274.483 114.381L290.453 111.02L284.779 127.838L274.483 114.381Z" fill="#7b7b7d" fill-rule="nonzero" opacity="1" stroke="none"/>
<path d="M284.779 127.838L290.453 111.02L289.454 144.924L284.779 127.838Z" fill="#8d8d8d" fill-rule="nonzero" opacity="1" stroke="none"/>
<path d="M247.591 207.81L274.881 158.368L281.586 193.588L263.149 213.589L249.839 213.821L247.591 207.81Z" fill="#444444" fill-rule="nonzero" opacity="1" stroke="none"/>
<path d="M284.779 127.838L289.454 144.924L294.483 144.556L295.824 151.174L274.881 158.368L284.779 127.838Z" fill="#707374" fill-rule="nonzero" opacity="1" stroke="none"/>
<path d="M274.881 158.368L295.824 151.174L297.182 155.862L290.453 175.545L285.969 175.411L281.586 193.588L274.881 158.368Z" fill="#565958" fill-rule="nonzero" opacity="1" stroke="none"/>
<path d="M211.29 154.137L247.591 207.81L249.985 213.821L236.797 213.821L217.131 193.588L213.206 175.452L208.735 175.59L207.614 172.381L211.29 154.137Z" fill="#3a3a3a" fill-rule="nonzero" opacity="1" stroke="none"/>
<path d="M207.614 172.381L211.29 154.137L204.676 144.924L201.925 155.754L207.614 172.381Z" fill="#4a4a4c" fill-rule="nonzero" opacity="1" stroke="none"/>
<path d="M204.676 144.924L210.059 145.39L208.735 117.704L246.923 115.773L211.29 154.137L204.676 144.924Z" fill="#585858" fill-rule="nonzero" opacity="1" stroke="none"/>
<path d="M211.29 154.137L246.923 115.773L274.483 114.381L211.29 154.137Z" fill="#4e4e4e" fill-rule="nonzero" opacity="1" stroke="none"/>
<path d="M211.29 154.137L274.483 114.381L284.779 127.838L274.881 158.368L211.29 154.137Z" fill="#5c5c5c" fill-rule="nonzero" opacity="1" stroke="none"/>
<path d="M211.29 154.137L274.881 158.368L247.591 207.81L211.29 154.137Z" fill="#4e4e4e" fill-rule="nonzero" opacity="1" stroke="none"/>
</g>
</g>
</g>
</svg>
